<svg xmlns="http://www.w3.org/2000/svg" width="13.27" height="23.433" viewBox="47.284 239.612 13.27 23.433"><path d="M59.276 257.629H48.561V242.49h10.715v15.138Zm-5.357 3.73a1.09 1.09 0 0 1 0-2.177 1.088 1.088 0 0 1 0 2.178m-2.434-20.712h4.868c.123 0 .223.183.223.41 0 .228-.1.412-.223.412h-4.868c-.123 0-.221-.184-.221-.411 0-.228.098-.411.221-.411m7.364-1.036h-9.86c-.943 0-1.705.764-1.705 1.707v20.02c0 .942.762 1.706 1.705 1.706h9.86c.941 0 1.705-.764 1.705-1.706v-20.02c0-.943-.764-1.707-1.705-1.707" fill="#221f1f" fill-rule="evenodd" data-name="Path 468"/></svg>